<svg xmlns="http://www.w3.org/2000/svg" xmlns:xlink="http://www.w3.org/1999/xlink" width="500" zoomAndPan="magnify" viewBox="0 0 375 374.999991" height="500" preserveAspectRatio="xMidYMid meet" version="1.0"><defs><clipPath id="111bb8b083"><path d="M 3.511719 0 L 374.761719 0 L 374.761719 371.25 L 3.511719 371.25 Z M 3.511719 0 " clip-rule="nonzero"/></clipPath></defs><path fill="#e882e8" d="M 206.964844 129.953125 L 206.964844 160.136719 L 244.964844 160.136719 L 239.648438 201.417969 L 206.964844 201.417969 L 206.964844 296.03125 L 165.523438 296.03125 L 165.523438 201.417969 L 130.023438 201.417969 L 130.023438 160.132812 L 165.523438 160.132812 L 165.523438 129.953125 C 165.523438 97.269531 191.953125 75.21875 224.636719 75.21875 C 239.023438 75.21875 248.09375 77.410156 248.09375 77.410156 L 248.09375 112.28125 L 224.636719 112.28125 C 214.941406 112.28125 206.964844 120.257812 206.964844 129.953125 Z M 206.964844 129.953125 " fill-opacity="1" fill-rule="nonzero"/><g clip-path="url(#111bb8b083)"><path fill="#e882e8" d="M 189.136719 371.25 C 86.863281 371.25 3.511719 288.054688 3.511719 185.625 C 3.511719 83.195312 86.863281 0 189.136719 0 C 291.566406 0 374.761719 83.351562 374.761719 185.625 C 374.761719 287.898438 291.566406 371.25 189.136719 371.25 Z M 189.136719 10.164062 C 92.335938 10.164062 13.675781 88.824219 13.675781 185.625 C 13.675781 282.425781 92.335938 361.085938 189.136719 361.085938 C 285.9375 361.085938 364.597656 282.425781 364.597656 185.625 C 364.597656 88.824219 285.9375 10.164062 189.136719 10.164062 Z M 189.136719 10.164062 " fill-opacity="1" fill-rule="nonzero"/></g></svg>