<svg xmlns="http://www.w3.org/2000/svg" xmlns:xlink="http://www.w3.org/1999/xlink" width="500" zoomAndPan="magnify" viewBox="0 0 375 374.999991" height="500" preserveAspectRatio="xMidYMid meet" version="1.0"><defs><clipPath id="410629b893"><path d="M 5.871094 5.871094 L 368.871094 5.871094 L 368.871094 368.871094 L 5.871094 368.871094 Z M 5.871094 5.871094 " clip-rule="nonzero"/></clipPath></defs><path fill="#e882e8" d="M 267.1875 147.460938 C 267.1875 147.460938 269.941406 205.414062 225.75 241.195312 C 159.847656 294.710938 88.746094 251.285156 88.746094 251.285156 C 88.746094 251.285156 106.023438 251.589844 121.316406 247.464844 C 136.605469 243.335938 147.460938 233.546875 147.460938 233.546875 C 147.460938 233.546875 130.796875 230.03125 122.234375 223.761719 C 113.515625 217.492188 110.304688 205.414062 110.304688 205.414062 C 110.304688 205.414062 115.964844 205.871094 119.632812 205.871094 C 123.304688 205.71875 127.738281 204.039062 127.738281 204.039062 C 127.738281 204.039062 115.8125 202.660156 104.648438 190.125 C 95.933594 180.335938 96.542969 163.976562 96.542969 163.976562 C 96.542969 163.976562 101.742188 167.035156 104.648438 167.800781 C 107.402344 168.5625 112.753906 168.5625 112.753906 168.5625 C 112.753906 168.5625 102.355469 162.292969 97.613281 146.390625 C 93.027344 130.335938 101.894531 114.128906 101.894531 114.128906 C 101.894531 114.128906 117.1875 132.785156 140.277344 144.863281 C 163.363281 156.941406 185.078125 156.484375 185.078125 156.484375 C 185.078125 156.484375 181.867188 146.851562 187.371094 132.785156 C 192.875 118.5625 205.414062 108.472656 224.375 106.941406 C 243.335938 105.414062 255.414062 119.785156 255.414062 119.785156 C 255.414062 119.785156 261.226562 118.714844 267.953125 116.269531 C 274.679688 113.824219 281.253906 110.765625 281.253906 110.765625 C 281.253906 110.765625 278.960938 117.953125 274.375 123.609375 C 269.789062 129.265625 264.589844 132.628906 264.589844 132.628906 C 264.589844 132.628906 270.550781 132.171875 276.515625 130.488281 C 282.480469 128.808594 285.84375 127.125 285.84375 127.125 C 279.269531 138.746094 267.1875 147.460938 267.1875 147.460938 Z M 267.1875 147.460938 " fill-opacity="1" fill-rule="nonzero"/><g clip-path="url(#410629b893)"><path fill="#e882e8" d="M 187.371094 368.871094 C 87.371094 368.871094 5.871094 287.523438 5.871094 187.371094 C 5.871094 87.21875 87.371094 5.871094 187.371094 5.871094 C 287.371094 5.871094 368.871094 87.371094 368.871094 187.371094 C 368.871094 287.371094 287.523438 368.871094 187.371094 368.871094 Z M 187.371094 15.808594 C 92.722656 15.808594 15.808594 92.722656 15.808594 187.371094 C 15.808594 282.019531 92.722656 358.933594 187.371094 358.933594 C 282.019531 358.933594 358.933594 282.019531 358.933594 187.371094 C 358.933594 92.722656 282.019531 15.808594 187.371094 15.808594 Z M 187.371094 15.808594 " fill-opacity="1" fill-rule="nonzero"/></g></svg>