<svg xmlns="http://www.w3.org/2000/svg" xmlns:xlink="http://www.w3.org/1999/xlink" width="500" zoomAndPan="magnify" viewBox="0 0 375 374.999991" height="500" preserveAspectRatio="xMidYMid meet" version="1.0"><defs><clipPath id="f3e1bfd562"><path d="M 9.722656 9.722656 L 365.222656 9.722656 L 365.222656 365.222656 L 9.722656 365.222656 Z M 9.722656 9.722656 " clip-rule="nonzero"/></clipPath></defs><path fill="#e882e8" d="M 233.894531 85.347656 L 141.203125 85.347656 C 110.503906 85.347656 85.496094 110.355469 85.496094 141.050781 L 85.496094 233.746094 C 85.496094 264.445312 110.503906 289.453125 141.203125 289.453125 L 233.894531 289.453125 C 264.59375 289.453125 289.601562 264.445312 289.601562 233.746094 L 289.601562 141.203125 C 289.601562 110.355469 264.59375 85.347656 233.894531 85.347656 Z M 272.082031 233.894531 C 272.082031 255.007812 255.007812 272.082031 233.894531 272.082031 L 141.203125 272.082031 C 120.085938 272.082031 102.867188 255.007812 102.867188 233.894531 L 102.867188 141.203125 C 102.867188 120.085938 120.085938 102.867188 141.203125 102.867188 L 233.894531 102.867188 C 255.007812 102.867188 272.082031 119.9375 272.082031 141.203125 Z M 272.082031 233.894531 " fill-opacity="1" fill-rule="nonzero"/><path fill="#e882e8" d="M 255.757812 131.617188 C 255.757812 138.507812 250.21875 144.195312 243.179688 144.195312 C 236.292969 144.195312 230.601562 138.65625 230.601562 131.617188 C 230.601562 124.730469 236.140625 119.039062 243.179688 119.039062 C 250.21875 119.1875 255.757812 124.730469 255.757812 131.617188 Z M 255.757812 131.617188 " fill-opacity="1" fill-rule="nonzero"/><path fill="#e882e8" d="M 187.472656 135.511719 C 158.871094 135.511719 135.511719 158.871094 135.511719 187.472656 C 135.511719 216.074219 158.871094 239.4375 187.472656 239.4375 C 216.074219 239.4375 239.4375 216.074219 239.4375 187.472656 C 239.4375 158.871094 216.226562 135.511719 187.472656 135.511719 Z M 187.472656 221.914062 C 168.457031 221.914062 153.03125 206.492188 153.03125 187.472656 C 153.03125 168.457031 168.457031 153.03125 187.472656 153.03125 C 206.492188 153.03125 221.914062 168.457031 221.914062 187.472656 C 221.914062 206.492188 206.492188 221.914062 187.472656 221.914062 Z M 187.472656 221.914062 " fill-opacity="1" fill-rule="nonzero"/><g clip-path="url(#f3e1bfd562)"><path fill="#e882e8" d="M 187.472656 365.222656 C 89.539062 365.222656 9.722656 285.558594 9.722656 187.472656 C 9.722656 89.539062 89.539062 9.722656 187.472656 9.722656 C 285.558594 9.722656 365.222656 89.539062 365.222656 187.472656 C 365.222656 285.558594 285.558594 365.222656 187.472656 365.222656 Z M 187.472656 19.457031 C 94.78125 19.457031 19.457031 94.78125 19.457031 187.472656 C 19.457031 280.167969 94.78125 355.488281 187.472656 355.488281 C 280.167969 355.488281 355.488281 280.167969 355.488281 187.472656 C 355.488281 94.78125 280.167969 19.457031 187.472656 19.457031 Z M 187.472656 19.457031 " fill-opacity="1" fill-rule="nonzero"/></g></svg>